# xmcd
#
# Track frame offsets:
#	182
#	18960
#	38935
#	50365
#	71707
#	93647
#	122630
#	138837
#	153712
#
# Disc length: 2344
#
# Revision: 1
# Processed by: cddbd v1.5.1PL0 Copyright (c) Steve Scherf et al.
# Submitted via: CDex 1.50
# Normalized: r0:TDELIM( - ),TSWAP
#
DISCID=78092609
DTITLE=Various Artist - Sounds For Ecstasy
DYEAR=1900
DGENRE=New Age
TTITLE0=Vangelis - Dawn
TTITLE1=Lorena McKennit - Greensleeves
TTITLE2=Mike Oldfield - Sunset Door
TTITLE3=Philip Glass - Mosque and Temple
TTITLE4=The New American Orchestra - Memories of Green
TTITLE5=Ed-Alleyne Johnson - Oxford Suite
TTITLE6=Beaver and Krause - Good Places
TTITLE7=Renaissance - Closer Than Yesterday
TTITLE8=Nathalie Fisher - Le Bateu
EXTD=
EXTT0=
EXTT1=
EXTT2=
EXTT3=
EXTT4=
EXTT5=
EXTT6=
EXTT7=
EXTT8=
PLAYORDER=
